<?xml version="1.0" encoding="utf-8"?>
<!-- Generator: Adobe Illustrator 19.0.0, SVG Export Plug-In . SVG Version: 6.00 Build 0)  -->
<svg version="1.1" id="a581a3db-2a43-4a80-ac9d-86c7ddaa56ac"
	 xmlns="http://www.w3.org/2000/svg" xmlns:xlink="http://www.w3.org/1999/xlink" x="0px" y="0px" viewBox="-327 254 600 800"
	 style="enable-background:new -327 254 600 800;" xml:space="preserve">
<style type="text/css">
	.st0{fill:url(#SVGID_1_);}
	.st1{fill:#3F3D56;}
	.st2{fill:#F2F2F2;}
	.st3{opacity:0.7;}
	.st4{fill:url(#SVGID_2_);}
	.st5{fill:#6C63FF;}
	.st6{opacity:0.1;enable-background:new    ;}
	.st7{fill:#EEEEEE;}
	.st8{fill:none;stroke:#E0E0E0;stroke-width:8;stroke-miterlimit:10;}
	.st9{fill:url(#SVGID_3_);}
	.st10{fill:none;stroke:#BDBDBD;stroke-width:5;stroke-miterlimit:10;}
	.st11{fill:#B84733;}
	.st12{fill:#F55F44;}
	.st13{fill:#39447A;}
	.st14{opacity:5.000000e-002;enable-background:new    ;}
	.st15{fill:#FDA57D;}
	.st16{fill:#333333;}
	.st17{fill:url(#SVGID_4_);}
	.st18{fill:#E0E0E0;}
	.st19{fill:#535461;}
	.st20{fill:url(#SVGID_5_);}
	.st21{fill:#3E3F49;}
	.st22{fill:#639BFF;}
	.st23{fill:#D0CDE1;}
	.st24{opacity:0.15;enable-background:new    ;}
	.st25{opacity:0.3;fill:#FFFFFF;enable-background:new    ;}
	.st26{opacity:0.3;enable-background:new    ;}
</style>
<linearGradient id="SVGID_1_" gradientUnits="userSpaceOnUse" x1="-322.2074" y1="838.0775" x2="245.3343" y2="838.0775">
	<stop  offset="0" style="stop-color:#FFFFFF;stop-opacity:0.4"/>
	<stop  offset="1" style="stop-color:#0A7DBC"/>
</linearGradient>
<path class="st0" d="M244.1,736.3c-2.8,15.1-9.3,29.5-12,44.5c-2.2,12-2.1,24.4-6.2,36.1c-4.2,11.8-12.5,22.2-16.6,34
	c-0.1,0.3-0.2,0.5-0.3,0.8c-1,3.1-1.7,6.3-2.2,9.5c-0.2,1.1-0.3,2.1-0.4,3.2c-1.1,11.1,0.4,22.5,0.9,33.7c0.6,15.5-1.3,32.4-13.2,44
	c-8.3,8.1-20.3,12.6-31.8,16.8c-17.5,6.4-35.2,12.8-54,15C73,978.1,36.7,967,2,973.9c-29,5.8-53,23.6-81.4,31.5
	c-28.7,8-59.9,5.4-89.5,0.5c-54.4-9.1-110-27.5-143.7-65.6c-4.5-5-8.6-10.6-9.4-16.9c-0.6-4.6,0.6-9.2,1.7-13.8
	c5.2-20.2,10.9-41.1,26-57.1c13-13.8,32.4-23.1,41.4-39.1c11.8-20.9,2.1-45.9-9.3-66.9c-2.8-5-5.7-10.2-6.2-15.8
	c-1.1-10.5,6.5-20.6,16.4-26.7c9.9-6.1,22-9.1,33.8-12c20.9-5,44.9-8.3,64.4-16.7c19-8.2,34.1-10.7,55.9-9.2
	c32.1,2.2,64,6.7,95.2,13.5c33.1,7.3,67.3,17.2,100.7,11c13.3-2.5,25.8-7.5,39-10.5c11-2.5,22.4-3.7,33.8-4.2
	c23.1-1.1,49.2,1.4,63.7,16.9C245.6,704.6,246.9,721.3,244.1,736.3z"/>
<title>Hello</title>
<path class="st1" d="M-228,960.9c0,26.4-15.7,35.6-35,35.6c-0.5,0-0.9,0-1.3,0c-0.9,0-1.8-0.1-2.7-0.1c-17.4-1.2-31-10.9-31-35.4
	c0-25.4,32.4-57.4,34.9-59.8l0,0c0.1-0.1,0.1-0.1,0.1-0.1S-228,934.5-228,960.9z"/>
<path class="st2" d="M-264.3,992.4l12.8-17.9l-12.8,19.9l0,2.1c-0.9,0-1.8-0.1-2.7-0.1l1.4-26.4l0-0.2l0,0l0.1-2.5l-12.9-19.9
	l12.9,18l0,0.5l1-19.9l-11-20.6l11.1,17.1l1.1-41.3l0-0.1v0.1l-0.2,32.6l11-12.9l-11,15.7l-0.3,17.8l10.2-17.1l-10.3,19.7l-0.2,9.9
	l14.9-23.8l-14.9,27.3L-264.3,992.4z"/>
<g class="st3">
	
		<linearGradient id="SVGID_2_" gradientUnits="userSpaceOnUse" x1="316.0227" y1="-321.6585" x2="316.0227" y2="-286.1065" gradientTransform="matrix(1 0 0 -1 -149.8033 483.6772)">
		<stop  offset="0" style="stop-color:#808080;stop-opacity:0.25"/>
		<stop  offset="0.5351" style="stop-color:#808080;stop-opacity:0.12"/>
		<stop  offset="1" style="stop-color:#808080;stop-opacity:0.1"/>
	</linearGradient>
	<path class="st4" d="M178,776.1v-6.3h-31.7v29.4c0,3.4,2.8,6.2,6.2,6.2h19.4c3.4,0,6.2-2.8,6.2-6.2v-6.5c4.6,0,8.3-3.7,8.2-8.3
		C186.2,779.8,182.5,776.1,178,776.1z M178,789.5v-10.2c2.8,0,5.1,2.3,5.1,5.1C183,787.2,180.8,789.5,178,789.5
		C178,789.5,178,789.5,178,789.5z"/>
</g>
<path class="st5" d="M176.9,777.1c-4.2,0-7.5,3.4-7.5,7.5s3.4,7.5,7.5,7.5s7.5-3.4,7.5-7.5S181.1,777.1,176.9,777.1L176.9,777.1z
	 M176.9,789.3c-2.6,0-4.6-2.1-4.6-4.6c0-2.6,2.1-4.6,4.6-4.6c2.6,0,4.6,2.1,4.6,4.6C181.6,787.2,179.5,789.3,176.9,789.3
	L176.9,789.3z"/>
<path class="st6" d="M176.9,777.1c-4.2,0-7.5,3.4-7.5,7.5s3.4,7.5,7.5,7.5s7.5-3.4,7.5-7.5S181.1,777.1,176.9,777.1L176.9,777.1z
	 M176.9,789.3c-2.6,0-4.6-2.1-4.6-4.6c0-2.6,2.1-4.6,4.6-4.6c2.6,0,4.6,2.1,4.6,4.6C181.6,787.2,179.5,789.3,176.9,789.3
	L176.9,789.3z"/>
<path class="st5" d="M148,771.3h29l0,0v26.8c0,3.1-2.5,5.7-5.7,5.7h-17.6c-3.1,0-5.7-2.5-5.7-5.7V771.3L148,771.3z"/>
<path class="st6" d="M171.7,771.3v26.8c0,3.1-2.5,5.7-5.7,5.7h2.9c3.1,0,5.7-2.5,5.7-5.7v-26.8H171.7z"/>
<path class="st7" d="M153.7,749.7c-0.5,0-1,0.3-1.3,0.6c-0.4,0.7,0.3,1.5,0.9,1.9c1.2,0.9,2.4,1.7,3.2,3s1,2.9,0.2,4.1
	c-1.1,1.5-3.8,1.9-4.1,3.7c-0.2,1.2,0.9,2.2,1.9,2.8c2.6,1.5,6,1.9,7.9,4.2c0.8-1.6,2.5-2.5,4.3-2.9c1.7-0.4,3.6-0.4,5.3-0.6
	c0.6,0,1.1-0.3,1.5-0.8c0.5-1-0.9-2.2-0.4-3.2c0.4-0.8,1.5-0.7,2.3-1c1.3-0.5,1.8-2.2,1.5-3.5c-0.4-1.3-1.4-2.4-2.5-3.2
	c-2.9-2.3-6.5-3.7-10-4.6c-1.7-0.5-3.6-1.2-5.3-1.2C157.2,748.9,155.3,749.4,153.7,749.7z"/>
<line class="st8" x1="-49.7" y1="810.6" x2="-110.3" y2="999.4"/>
<g class="st3">
	
		<linearGradient id="SVGID_3_" gradientUnits="userSpaceOnUse" x1="54.0813" y1="-562.484" x2="54.0813" y2="-126.4994" gradientTransform="matrix(1 0 0 -1 -149.8033 483.6772)">
		<stop  offset="0" style="stop-color:#808080;stop-opacity:0.25"/>
		<stop  offset="0.5351" style="stop-color:#808080;stop-opacity:0.12"/>
		<stop  offset="1" style="stop-color:#808080;stop-opacity:0.1"/>
	</linearGradient>
	<path class="st9" d="M-2.8,1020.7c-7.5,0.4-14.1,6.7-14.1,6.7l-3.2-8l-0.3,0.1c1.6-6.9,33.5-148.4,1.5-160.6
		c-24.6-9.4-50.6-21-71-20.5v-33.4h28.6v-1.2h22.6c4.3-3.1-2-5.2-9-6.6c0.3-0.3,0.5-0.7,0.8-1.1l36.3-65.1c0,0,8.3-13.7,3-20.3
		c-5.4-6.6-13.1,16.7-13.1,16.7l-29.8,42.9c0,0-30.1-31.3-49.2-46.9c-2.1-2.1-4.5-3.9-7.1-5.4c-3.5-2.4-6.1-3.6-7.4-3.1c0,0,0,0,0,0
		c-2.9-0.8-5.9-1.2-8.9-1.2h-2.4v-4.9c10.8-3.6,19.5-11.8,23.6-22.4c6.8-11.3,8.1-25.1,3.4-37.4c0.4,0,0.7-0.2,1-0.3
		c1.1-0.7,1.2-2.2,1.1-3.5c-0.8-8.7-5.8-16.5-13.5-20.8c-3-1.7-6.5-2.8-8.7-5.4c-1.9-2.3-2.7-5.4-5-7.2c-2.8-2.2-6.7-1.8-10.1-0.8
		c-3.8,1.1-7.3,2.8-10.5,5c-3.7,2.5-6.9,5.7-11.1,7.1c-3,1-6.2,1-9.2,1.9c-4.7,1.5-8.4,5.1-10,9.7c-0.8,2.5-1.1,5-0.9,7.6
		c-1.8,3.1-3.3,6.3-4.3,9.7c-0.2,0.1-0.5,0.2-0.7,0.4l0.7-0.3c-4.7,15.7,0,32.7,12.1,43.8c4.7,6.1,11.1,10.6,18.3,13v5.9
		c-5.2,1.1-10.1,3.1-14.6,6l0,0c0,0-0.4,0.2-1,0.7c-0.1,0-0.1,0.1-0.2,0.1c-4.4,3-19.2,13.9-18.7,25.7c0,0.5,0,0.9,0,1.4
		c-0.8,3.4-1.2,6.9-1.2,10.4v85.8c0,9.5,3.2,18.7,9,26.1c-12.4,2.8-20.4,7-20.4,11.7c0.1,0.4,0.1,0.8,0,1.2c0,8.4,25.1,15.2,56,15.2
		c3.7,0,7.4-0.1,10.9-0.3l35,28.3l-56,90c0,0-18.5,14.3-4.2,19.1c14.3,4.8,43.5,8.3,43.5,8.3s4.8-8.3-1.8-11.9
		c-6.6-3.6-15.5-1.8-15.5-1.8l1.2-7.2c0,0,97.1-83.4,76.9-112c-3.9-5.5-7.8-11.1-11.7-16.7l15.3,1.4l3.5,131l0.4-0.1
		c-0.9,2.6-7.1,22,6.6,18.7c14.7-3.5,41.3-15.9,41.3-15.9S4.7,1020.3-2.8,1020.7z M-61.2,795.3l-28.6-8.3v-24.5l31.1,33
		C-60.3,795.4-61.2,795.3-61.2,795.3z"/>
</g>
<circle cx="-137.7" cy="667.9" r="42"/>
<path class="st5" d="M-89.9,764l32,34c2.4,2.5,6.3,2.6,8.8,0.3c0.5-0.4,0.9-0.9,1.2-1.5l35.5-63.6l-9.9-3.5l-29.1,42
	c0,0-54.7-57-62.3-54.2C-121.5,720.2-89.9,764-89.9,764z"/>
<line class="st10" x1="-151.1" y1="881.7" x2="-198.3" y2="1004.1"/>
<line class="st10" x1="-127.8" y1="881.7" x2="-80.6" y2="1004.1"/>
<ellipse class="st11" cx="-139.5" cy="882.6" rx="54.8" ry="14.9"/>
<ellipse class="st12" cx="-139.5" cy="881.4" rx="54.8" ry="14.9"/>
<line class="st10" x1="-162.5" y1="908.6" x2="-110.8" y2="924.5"/>
<line class="st10" x1="-116.4" y1="908.6" x2="-168.1" y2="924.5"/>
<path class="st5" d="M-138.8,716.2h16.3c18,0,32.6,14.6,32.6,32.6v86.2l0,0h-93.2l0,0v-74.5C-183.2,736.1-163.3,716.2-138.8,716.2z"
	/>
<path class="st13" d="M-183.2,835.1h93.2l0,0v50.7l0,0h-51.9c-22.8,0-41.4-18.5-41.4-41.4l0,0V835.1L-183.2,835.1z"/>
<path class="st14" d="M-181.9,751.2l57,54.2H-62v-8.2l-54.2-15.7l-46.4-57.2C-162.5,724.3-183.6,737.3-181.9,751.2z"/>
<path class="st5" d="M-181.9,750.1l57,54.2H-62v-8.2l-54.2-15.7l-46.4-57.2C-162.5,723.1-183.6,736.1-181.9,750.1z"/>
<path class="st15" d="M-62,796.1c0,0,30.3,2.3,22.1,8.2H-62V796.1z"/>
<path class="st15" d="M-22.3,729.6c0,0,7.6-22.7,12.8-16.3c5.2,6.4-2.9,19.8-2.9,19.8L-22.3,729.6z"/>
<polygon class="st14" points="-183.2,835.1 -183.2,837.8 -89.9,838 -89.9,835.1 "/>
<path class="st13" d="M-110.7,889l62.7,5.7l3.4,128.1l22.5-7.3c0,0,33.6-145.1,1.6-157.3s-66.6-28.3-87.3-15.2
	C-128.5,856.1-110.7,889-110.7,889z"/>
<path class="st6" d="M-106.8,849.7c0,0,34.4,17.5,39,37.3"/>
<path class="st13" d="M-143.6,885.2l48.9,39.6l-54.8,88l22.7,6.4c0,0,95-81.6,75.2-109.5c-19.8-28-39.6-60.6-64.1-61.2
	S-143.6,885.2-143.6,885.2z"/>
<polygon class="st14" points="-66.6,756.4 -54.4,777.4 -51.5,771.6 "/>
<path class="st16" d="M-149.4,1012.8c0,0-18.1,14-4.1,18.6c14,4.7,42.5,8.2,42.5,8.2s4.7-8.2-1.7-11.7s-15.2-1.7-15.2-1.7l1.2-7
	L-149.4,1012.8z"/>
<path class="st16" d="M-44,1022.4c0,0-7.9,22,6.4,18.6s40.4-15.6,40.4-15.6s-0.4-9.4-7.6-9s-13.8,6.5-13.8,6.5l-3.1-7.8L-44,1022.4z
	"/>
<path class="st15" d="M-136.6,695.8L-136.6,695.8c6.4,0,11.7,5.2,11.7,11.7v11.7c0,6.4-5.2,11.7-11.7,11.7h0
	c-6.4,0-11.7-5.2-11.7-11.7v-11.7C-148.2,701.1-143,695.8-136.6,695.8z"/>
<path class="st14" d="M-136.6,697c-6.4,0-11.7,5.2-11.7,11.7v4c7.6,2.5,15.7,2.5,23.3,0v-4C-124.9,702.2-130.1,697-136.6,697z"/>
<circle class="st15" cx="-136.6" cy="676" r="37.3"/>
<path class="st14" d="M-173.9,674.3c0,0,9.3,2.4,14.6-8.2c5.2-10.6,9.3-16.4,30.9-10.1s25.9,7,26.9,1.1c0.7-4-7-13.9-11.9-19.7
	c-2.4-2.8-6.3-4.5-10.5-4.5h-24.3l-14.6,6.7l-11.1,9.6l-2.3,13L-173.9,674.3z"/>
<path d="M-173.9,673.2c0,0,9.3,2.4,14.6-8.2c5.2-10.6,9.3-16.4,30.9-10.1s25.9,7,26.9,1.1c0.7-4-7-13.9-11.9-19.7
	c-2.4-2.8-6.3-4.5-10.5-4.5h-24.3l-14.6,6.7l-11.1,9.6l-2.3,13L-173.9,673.2z"/>
<ellipse class="st15" cx="-170.1" cy="673.1" rx="3.8" ry="7.6"/>
<path d="M-172.8,653.6c-0.9-4.9-1.7-10-0.1-14.7c1.6-4.5,5.2-8.1,9.8-9.5c2.9-0.9,6.1-0.9,9-1.8c4.1-1.4,7.3-4.5,10.9-6.9
	c3.2-2.2,6.6-3.8,10.3-4.9c3.3-1,7.2-1.3,9.9,0.8c2.3,1.8,3,4.9,4.9,7.1c2.2,2.6,5.6,3.7,8.5,5.3c7.5,4.2,12.4,11.8,13.2,20.3
	c0.1,1.3,0,2.7-1.1,3.4c-0.7,0.3-1.4,0.5-2.1,0.4c-14.9-0.2-29.8-0.4-44.7-1.8c-4.6-0.4-9.2-1-13.9-0.8c-7.2,0.3-14.2,2.3-20.4,5.8"
	/>
<path class="st5" d="M-288.9,986.2h51.6c10.6,0,19.1,8.6,19.1,19.1v0c0,10.6-8.6,19.1-19.1,19.1h-51.6c-10.6,0-19.1-8.6-19.1-19.1v0
	C-308,994.7-299.4,986.2-288.9,986.2z"/>
<linearGradient id="SVGID_4_" gradientUnits="userSpaceOnUse" x1="177.3713" y1="-366.0953" x2="177.3713" y2="-364.3472" gradientTransform="matrix(1 0 0 -1 -149.8033 483.6772)">
	<stop  offset="0" style="stop-color:#808080;stop-opacity:0.25"/>
	<stop  offset="0.5351" style="stop-color:#808080;stop-opacity:0.12"/>
	<stop  offset="1" style="stop-color:#808080;stop-opacity:0.1"/>
</linearGradient>
<path class="st17" d="M27.6,849.8c0.5,0,0.9-0.4,0.8-0.9c0-0.5-0.4-0.8-0.8-0.8c-0.5,0-0.9,0.4-0.8,0.9
	C26.7,849.4,27.1,849.8,27.6,849.8z"/>
<line class="st8" x1="155.8" y1="810.6" x2="216.4" y2="1026.3"/>
<rect x="-110.6" y="804.3" class="st18" width="327.2" height="12.8"/>
<path class="st19" d="M-26.1,801.3h46c2.1,0,3.8,1.7,3.8,3.8l0,0c0,2.1-1.7,3.8-3.8,3.8h-46c-2.1,0-3.8-1.7-3.8-3.8l0,0
	C-29.9,803-28.2,801.3-26.1,801.3z"/>
<g class="st3">
	
		<linearGradient id="SVGID_5_" gradientUnits="userSpaceOnUse" x1="69.326" y1="-249.4113" x2="69.326" y2="-157.2859" gradientTransform="matrix(1 0 0 -1 0 559.5696)">
		<stop  offset="0" style="stop-color:#808080;stop-opacity:0.25"/>
		<stop  offset="0.5351" style="stop-color:#808080;stop-opacity:0.12"/>
		<stop  offset="1" style="stop-color:#808080;stop-opacity:0.1"/>
	</linearGradient>
	<path class="st20" d="M19.1,716.9h100.4c9.1,0,16.4,7.4,16.4,16.4v59.2c0,9.1-7.4,16.4-16.4,16.4H19.1c-9.1,0-16.4-7.4-16.4-16.4
		v-59.2C2.7,724.2,10.1,716.9,19.1,716.9z"/>
</g>
<path class="st21" d="M20.7,718.6h94.9c8.6,0,15.6,7,15.6,15.6v59.2c0,8.6-7,15.6-15.6,15.6H20.7c-8.6,0-15.6-7-15.6-15.6v-59.2
	C5.1,725.6,12.1,718.6,20.7,718.6z"/>
<path class="st19" d="M22.5,718.6h94.9c8.6,0,15.6,7,15.6,15.6v59.2c0,8.6-7,15.6-15.6,15.6H22.5c-8.6,0-15.6-7-15.6-15.6v-59.2
	C6.8,725.6,13.8,718.6,22.5,718.6z"/>
<circle class="st18" cx="75.8" cy="763.1" r="4.1"/>
<path class="st1" d="M225.9,616.6H-26.4v-120h252.3V616.6z M-25.3,615.5h250V497.8h-250V615.5z"/>
<path class="st22" d="M84.8,404c5.9-19.2,21.5-33.7,41-38.3c-21.1-22.7-56.6-23.9-79.3-2.8s-23.9,56.6-2.8,79.3
	c13.7,14.7,34.1,20.9,53.7,16.4C83.8,444,78.9,423.2,84.8,404z"/>
<path class="st1" d="M164.5,372.1c-9.4-2.9-19.4-3.2-29-1c21.1,22.6,19.9,58.1-2.7,79.3c-7.2,6.7-16,11.4-25.6,13.6
	c21.1,22.7,56.6,23.9,79.3,2.8c22.7-21.1,23.9-56.6,2.8-79.3C182.4,380.3,173.9,375,164.5,372.1L164.5,372.1z"/>
<ellipse transform="matrix(-0.9564 -0.2922 0.2922 -0.9564 104.5926 842.235)" class="st23" cx="115.2" cy="413.3" rx="28" ry="48.6"/>
<rect x="-21.4" y="508.5" class="st2" width="240.6" height="100"/>
<rect x="-9.4" y="501.8" class="st22" width="229.1" height="19.1"/>
<rect x="5.1" y="508.8" class="st1" width="200" height="5.2"/>
<rect x="45" y="535.9" class="st22" width="119.8" height="53.8"/>
<ellipse class="st24" cx="104.8" cy="562.8" rx="11" ry="10.3"/>
<ellipse class="st25" cx="143.3" cy="562.8" rx="11" ry="10.3"/>
<ellipse class="st26" cx="66.4" cy="562.8" rx="11" ry="10.3"/>
<rect x="-177" y="312.5" class="st22" width="18.5" height="18.5"/>
<path class="st1" d="M-147.2,320.4h-22.5v-22.5h22.5V320.4z M-168.7,319.4h20.5v-20.5h-20.5V319.4z"/>
<rect x="-261.9" y="371.9" transform="matrix(-0.2746 -0.9616 0.9616 -0.2746 -688.4654 242.8681)" class="st22" width="18.5" height="18.5"/>
<path class="st1" d="M-245.7,400.5l-6.2-21.6l21.6-6.2l6.2,21.6L-245.7,400.5z M-250.7,379.5l5.6,19.7l19.7-5.6l-5.6-19.7
	L-250.7,379.5z"/>
<rect x="-255.5" y="282.2" transform="matrix(0.6828 -0.7306 0.7306 0.6828 -291.0692 -87.4286)" class="st22" width="18.5" height="18.5"/>
<path class="st1" d="M-259.3,307.4l15.3-16.4l16.4,15.3l-15.3,16.4L-259.3,307.4z M-243.9,292.3l-14,15l15,14l14-15L-243.9,292.3z"
	/>
</svg>
